HIERARCHY
ROOT Hips
{
	OFFSET 0.00000 0.00000 0.00000
	CHANNELS 6 Xposition Yposition Zposition Zrotation Yrotation Xrotation 
	JOINT LHipJoint
	{
		OFFSET 0 0 0
		CHANNELS 3 Zrotation Yrotation Xrotation
		JOINT LeftHip
		{
			OFFSET 1.53139 -1.83434 0.76626
			CHANNELS 3 Zrotation Yrotation Xrotation
			JOINT LeftKnee
			{
				OFFSET 2.56112 -7.03663 0.00000
				CHANNELS 3 Zrotation Yrotation Xrotation
				JOINT LeftAnkle
				{
					OFFSET 2.59983 -7.14299 0.00000
					CHANNELS 3 Zrotation Yrotation Xrotation
					JOINT LeftToe
					{
						OFFSET 0.13742 -0.37757 2.00054
						CHANNELS 3 Zrotation Yrotation Xrotation
						End Site
						{
							OFFSET 0.00000 -0.00000 1.02897
						}
					}
				}
			}
		}
	}
	JOINT RHipJoint
	{
		OFFSET 0 0 0
		CHANNELS 3 Zrotation Yrotation Xrotation
		JOINT RightHip
		{
			OFFSET -1.40122 -1.83435 0.76627
			CHANNELS 3 Zrotation Yrotation Xrotation
			JOINT RightKnee
			{
				OFFSET -2.54052 -6.98003 0.00000
				CHANNELS 3 Zrotation Yrotation Xrotation
				JOINT RightAnkle
				{
					OFFSET -2.63179 -7.23079 0.00000
					CHANNELS 3 Zrotation Yrotation Xrotation
					JOINT RightToe
					{
						OFFSET -0.24131 -0.66299 2.03908
						CHANNELS 3 Zrotation Yrotation Xrotation
						End Site
						{
							OFFSET -0.00000 -0.00000 1.07391
						}
					}
				}
			}
		}
	}
	JOINT lowerback
	{
		OFFSET 0 0 0
		CHANNELS 3 Zrotation Yrotation Xrotation
		JOINT Chest
		{
			OFFSET 0.01174 2.10302 -0.29778
			CHANNELS 3 Zrotation Yrotation Xrotation
			JOINT Chest2
			{
				OFFSET 0.00772 2.13227 -0.01247
				CHANNELS 3 Zrotation Yrotation Xrotation
				JOINT lowerneck
				{
					OFFSET 0 0 0
					CHANNELS 3 Zrotation Yrotation Xrotation
					JOINT Neck
					{
						OFFSET -0.09219 1.60848 0.31481
						CHANNELS 3 Zrotation Yrotation Xrotation
						JOINT Head
						{
							OFFSET 0.13974 1.65456 -0.31134
							CHANNELS 3 Zrotation Yrotation Xrotation
							End Site
							{
								OFFSET 0.04742 1.69515 -0.14578
							}
						}
					}
				}
				JOINT LeftCollar
				{
					OFFSET 0 0 0
					CHANNELS 3 Zrotation Yrotation Xrotation
					JOINT LeftShoulder
					{
						OFFSET 3.24909 1.02882 -0.23993
CHANNELS 3 Zrotation Xrotation Yrotation
						JOINT LeftElbow
						{
OFFSET 0 -5.329550 -0.000000
CHANNELS 3 Zrotation Xrotation Yrotation
							JOINT LeftWrist
							{
OFFSET 0 -3.692320 -0.000000
CHANNELS 3 Zrotation Xrotation Yrotation
								JOINT lhand
								{
									OFFSET 0 0 0
CHANNELS 3 Zrotation Xrotation Yrotation
									JOINT LFingers
									{
OFFSET 0 -0.536600 -0.000000
CHANNELS 3 Zrotation Xrotation Yrotation
										End Site
										{
OFFSET 0 -0.432620 -0.000000
										}
									}
								}
								JOINT LThumb
								{
OFFSET 0 0.000000 0.000000
CHANNELS 3 Zrotation Xrotation Yrotation
									End Site
									{
OFFSET 0 -0.439220 0.439220
									}
								}
							}
						}
					}
				}
				JOINT RightCollar
				{
					OFFSET 0 0 0
					CHANNELS 3 Zrotation Yrotation Xrotation
					JOINT RightShoulder
					{
						OFFSET -3.21387 0.93002 -0.34594
CHANNELS 3 Zrotation Xrotation Yrotation
						JOINT RightElbow
						{
OFFSET 0 -5.234310 0.000000
CHANNELS 3 Zrotation Xrotation Yrotation
							JOINT RightWrist
							{
OFFSET 0 -3.553010 -0.000000
CHANNELS 3 Zrotation Xrotation Yrotation
								JOINT rhand
								{
									OFFSET 0 0 0
CHANNELS 3 Zrotation Xrotation Yrotation
									JOINT RFingers
									{
OFFSET 0 -0.772520 -0.000000
CHANNELS 3 Zrotation Xrotation Yrotation
										End Site
										{
OFFSET 0 -0.622830 -0.000000
										}
									}
								}
								JOINT RThumb
								{
OFFSET 0 0.000000 0.000000
CHANNELS 3 Zrotation Xrotation Yrotation
									End Site
									{
OFFSET 0 -0.632340 0.632340
									}
								}
							}
						}
					}
				}
			}
		}
	}
}
MOTION
Frames: 6
Frame Time: 0.008333333333333333
-12.207383 17.678454 15.073884 362.331377 -21.619516 -1.966737 0.000000 0.000000 0.000000 -17.299704 -13.082982 -10.282689 1.755601 8.337343 23.743496 -0.780416 -18.981926 -4.871869 0.702150 -5.353353 -14.919753 0.000000 0.000000 0.000000 16.384213 5.672551 -12.497918 -3.601181 -11.609879 34.365517 -0.811255 7.771396 -16.161028 -0.028601 1.091806 -3.001350 2.570397 0.966777 12.075159 0.866566 1.650642 1.591670 -0.808403 0.764474 -5.052831 -12.516252 -1.351385 -15.362786 4.253098 0.250295 38.964342 4.154077 -1.253422 16.690724 0.000000 0.000000 0.000000 4.353346 -0.883137 -24.005385 23.510864 -34.642564 7.426683 23.283203 10.035436 -22.256883 0.000000 0.000000 0.000000 -7.125000 0.000000 0.000000 -5.921205 53.898043 1.297740 0.000000 0.000000 0.000000 -5.604146 3.958740 10.745994 -22.399640 -33.425654 -6.804704 -16.350236 0.769986 -10.663255 0.000000 0.000000 0.000000 7.125000 0.000000 0.000000 7.564025 18.930717 4.742345
-12.343533 17.770417 15.011054 361.971028 -16.826978 -1.366681 0.000000 0.000000 0.000000 -15.469525 -11.916836 -11.731285 1.806294 8.450287 24.090299 0.033148 -12.084955 -8.935490 0.638216 -5.110889 -14.225152 0.000000 0.000000 0.000000 17.195842 3.306852 -11.848406 -3.167668 -10.961567 32.150500 -0.807844 5.377661 -16.024684 -0.007558 0.561878 -1.544055 2.974166 1.084812 12.127223 1.009636 1.875194 1.512569 -0.924010 0.867550 -5.149962 -13.172401 -1.769387 -15.174586 5.129580 -0.463366 38.552681 4.530716 -1.474800 16.515757 0.000000 0.000000 0.000000 2.622983 0.646954 -21.726202 22.747280 -33.811198 6.997218 24.124882 10.570486 -20.208098 0.000000 0.000000 0.000000 -7.125000 0.000000 0.000000 -4.444050 51.889958 0.760659 0.000000 0.000000 0.000000 -6.590960 3.484709 9.605089 -20.740222 -31.523831 -5.913527 -15.290933 2.581362 -10.923189 0.000000 0.000000 0.000000 7.125000 0.000000 0.000000 8.307470 18.731462 5.255089
-12.389429 17.858760 14.979103 362.858549 -12.010966 -1.464570 0.000000 0.000000 0.000000 -13.849158 -12.319961 -11.114485 1.716768 8.249361 23.474011 0.077544 -8.734855 -7.506763 0.546246 -4.734403 -13.152656 0.000000 0.000000 0.000000 16.598029 2.144049 -10.746178 -2.882285 -10.502021 30.618205 -0.797903 1.239149 -16.504626 -0.032312 1.157166 -3.181430 2.475715 1.147023 12.313611 0.644598 1.875729 1.718639 -1.027792 0.878932 -5.039834 -12.086662 -1.741241 -15.416944 4.244277 -0.313407 38.765835 3.983924 -1.357586 16.665135 0.000000 0.000000 0.000000 2.008131 1.336443 -20.742054 20.805183 -31.600116 5.947533 23.871020 11.895438 -20.455859 0.000000 0.000000 0.000000 -7.125000 0.000000 0.000000 -4.764133 52.108831 0.835313 0.000000 0.000000 0.000000 -7.098661 3.193708 8.008826 -19.872884 -30.488875 -5.466759 -15.638329 2.389497 -10.371017 0.000000 0.000000 0.000000 7.125000 0.000000 0.000000 8.070313 19.275430 5.003441
-12.335158 17.932667 14.982983 363.600254 -8.427739 -1.636243 0.000000 0.000000 0.000000 -11.660648 -11.462391 -9.449899 1.718528 8.253331 23.486135 0.123312 -4.650980 -6.586493 0.591218 -4.915732 -13.669861 0.000000 0.000000 0.000000 15.889229 1.822305 -9.645815 -2.705273 -10.201969 29.633324 -0.659634 -2.813061 -16.617349 -0.033359 1.178715 -3.240697 2.186383 1.403786 12.440369 0.289376 2.160472 1.885209 -1.283527 1.025604 -4.921674 -12.326187 -1.792279 -15.626671 4.883803 -0.455321 39.407195 4.335801 -1.370924 17.082145 0.000000 0.000000 0.000000 1.908539 2.156242 -19.660038 19.124157 -29.572588 5.092018 23.733916 13.973652 -20.671449 0.000000 0.000000 0.000000 -7.125000 0.000000 0.000000 -4.964708 52.312135 0.895421 0.000000 0.000000 0.000000 -7.590417 3.463177 7.535052 -19.645768 -30.213129 -5.351930 -16.162989 1.382675 -9.983418 0.000000 0.000000 0.000000 7.125000 0.000000 0.000000 7.703924 19.642038 4.708426
-12.171855 17.938885 15.026890 363.363608 -4.565110 -1.655170 0.000000 0.000000 0.000000 -9.217771 -9.401659 -7.729702 1.823318 8.487992 24.206333 0.064132 1.179698 -5.384409 0.071135 -1.706083 -4.694388 0.000000 0.000000 0.000000 15.598996 0.144715 -9.072430 -2.616683 -10.047015 29.129188 -0.579852 -5.197555 -17.218200 -0.045669 1.379187 -3.792785 2.388914 1.251186 12.050944 0.455040 1.982747 2.041809 -1.181816 0.943947 -4.547586 -12.204883 -1.642630 -15.827611 4.791843 -0.121818 40.249154 4.386488 -1.249976 17.564494 0.000000 0.000000 0.000000 1.627567 2.117259 -17.672555 17.471800 -27.475484 4.302749 23.808608 13.862194 -19.829922 0.000000 0.000000 0.000000 -7.125000 0.000000 0.000000 -4.653849 51.433657 0.738904 0.000000 0.000000 0.000000 -8.328546 3.541479 7.761761 -19.637443 -30.203064 -5.347731 -15.561008 1.841691 -9.218929 0.000000 0.000000 0.000000 7.125000 0.000000 0.000000 8.146861 20.460800 4.833313
-11.905240 17.940216 15.089881 363.102868 -0.366655 -1.840969 0.000000 0.000000 0.000000 -7.998645 -7.292473 -5.475281 1.693763 8.196676 23.313039 -0.150152 7.172705 -4.881874 0.004371 -0.398514 -1.095013 0.000000 0.000000 0.000000 15.038692 -1.470177 -8.152342 -2.536494 -9.903989 28.666266 -0.376129 -8.376469 -17.537782 -0.270297 3.344537 -9.239509 2.212445 0.947033 11.532627 0.605719 1.554268 2.026399 -0.847876 0.740816 -4.301788 -12.107869 -1.798728 -15.341858 4.540353 -0.304331 40.598596 4.234073 -1.343382 17.668498 0.000000 0.000000 0.000000 1.024484 3.250338 -15.125077 17.021939 -26.886541 4.097344 22.384561 15.330028 -21.008058 0.000000 0.000000 0.000000 -7.125000 0.000000 0.000000 -6.431397 52.421135 1.178943 0.000000 0.000000 0.000000 -8.425226 3.694847 6.893182 -19.358055 -29.861221 -5.207977 -16.005262 1.367421 -10.736941 0.000000 0.000000 0.000000 7.125000 0.000000 0.000000 7.806732 18.877126 4.906665
